
<svg width="88" height="18" viewBox="0 0 88 18" fill="none" xmlns="http://www.w3.org/2000/svg">>
<g clip-path="url(#clip0_782_13717)">
<path d="M4.80266 16.6515V7.71974C4.80266 4.57456 6.53591 2.84539 8.89695 2.84539C11.258 2.84539 12.2679 4.66987 12.2679 7.56997V16.6243H15.6798V7.09342C15.6681 7.02584 15.6681 6.95677 15.6798 6.88919C15.9528 4.28863 17.5495 2.80455 19.7741 2.80455C22.2716 2.80455 23.0769 4.62902 23.0769 7.52912V12.8119C23.0769 16.1613 25.9019 16.6107 28.4267 16.6107V13.8876H28.1811C26.8163 13.8876 26.5024 13.3157 26.5024 11.9678V7.07981C26.5024 2.4097 24.4553 0.108684 20.4701 0.108684C19.3514 0.0384577 18.2393 0.325145 17.2947 0.927284C16.3501 1.52942 15.622 2.41577 15.2158 3.45808C14.8036 2.37724 14.0448 1.46272 13.0574 0.856917C12.07 0.251115 10.9096 -0.0119491 9.75674 0.108684C8.78759 0.0834128 7.82816 0.306751 6.9703 0.757319C6.11244 1.20789 5.38487 1.8706 4.85724 2.68201C4.55699 0.911997 2.30513 0.435443 0.762949 0.435443H0.0805664V3.15854H0.762949C1.48627 3.15854 1.48627 4.02994 1.48627 4.65625V16.6107L4.80266 16.6515Z" fill="black"/>
<path d="M43.2353 9.21825C43.1261 12.132 39.141 13.8339 36.6025 13.9837C34.6236 14.079 33.7229 13.1531 33.7229 12.132C33.7229 11.1108 34.9375 9.57225 37.2167 9.49056L40.7241 9.31355C41.5672 9.29181 42.4071 9.20073 43.2353 9.04125V9.21825ZM48.4896 16.6523V13.9292H48.2849C46.9201 13.9292 46.6335 13.3301 46.6335 11.9822V11.8052V6.04584C46.6335 1.67527 42.9077 0.10949 38.9772 0.10949C36.4427 0.07876 33.9428 0.697578 31.7166 1.90672L32.6993 4.62982C34.5799 3.6723 36.6611 3.17305 38.7725 3.17297C41.1062 3.17297 43.1807 3.92182 43.208 6.1003C43.1261 7.12146 41.6249 7.09424 40.7787 7.067L37.0802 6.99892C32.5219 6.87638 30.1199 9.81733 30.1199 12.5132C30.1199 14.8278 31.8668 16.9791 35.4697 16.8565C36.976 16.8967 38.4691 16.5677 39.8182 15.8982C41.1673 15.2288 42.3312 14.2395 43.208 13.017C43.208 15.9307 45.0504 16.7068 48.4623 16.7068" fill="black"/>
<path d="M67.0522 2.47839C64.583 0.786395 61.6397 -0.0811522 58.6453 0.00038025C54.8376 0.00038025 51.3438 1.36194 51.3438 4.94281C51.3438 11.7506 63.7768 8.56452 63.7768 12.336C63.7768 13.929 61.7706 14.6098 59.3959 14.6098C56.7619 14.6098 53.6639 13.7793 52.3673 12.3632L50.5931 14.8276C52.2854 16.4751 55.7383 17.4282 59.0683 17.4282C63.2445 17.4282 67.2569 15.9305 67.2569 12.3632C67.2569 5.69166 54.6738 8.38751 54.6738 5.05172C54.6738 3.47232 56.4207 2.84601 58.5497 2.84601C61.0163 2.79637 63.4348 3.53071 65.4554 4.94281L67.0522 2.47839Z" fill="black"/>
<path d="M82.7324 9.21825C82.6096 12.132 78.6382 13.8339 76.0997 13.9837C74.1071 14.079 73.2064 13.1531 73.2064 12.132C73.2064 11.1108 74.421 9.57225 76.7002 9.49055L80.2076 9.31354C81.0553 9.29249 81.8998 9.20141 82.7324 9.04124V9.21825ZM87.9868 16.6523V13.9292H87.7821C86.4173 13.9292 86.1307 13.3301 86.1307 11.9822V11.8052V6.04584C86.1307 1.67526 82.4049 0.109483 78.4744 0.109483C75.9356 0.0788521 73.4312 0.697592 71.2002 1.90672L72.1965 4.62981C74.0715 3.67046 76.1488 3.17104 78.256 3.17297C80.6034 3.17297 82.6779 3.92181 82.7051 6.10029C82.6096 7.12145 81.1084 7.09423 80.2759 7.067L76.5774 6.99892C72.0191 6.87638 69.6171 9.81733 69.6171 12.5132C69.6171 14.8278 71.3503 16.9791 74.9533 16.8565C76.4612 16.8954 77.9558 16.5658 79.3069 15.8966C80.658 15.2274 81.8246 14.2388 82.7051 13.017C82.7051 15.9307 84.5339 16.7068 87.9595 16.7068" fill="black"/>
</g>
<defs>
<clipPath id="clip0_782_13717">
<rect width="88" height="17.4414" fill="black"/>
</clipPath>
</defs>
</svg>
