<svg xmlns="http://www.w3.org/2000/svg" xmlns:xlink="http://www.w3.org/1999/xlink" viewBox="0 0 28 19.5"><path d="M 19.226 17.899 C 22.673 10.486 20.671 3.412 19.212 0.756 L 18.357 1.222 C 19.708 3.668 21.635 10.419 18.343 17.487 L 19.226 17.898 Z M 8.829 0.791 C 5.381 8.203 7.383 15.278 8.842 17.927 L 9.698 17.461 C 8.347 15.015 6.419 8.264 9.711 1.196 Z" fill="rgb(0, 0, 0)"></path><path d="M 24.06 15.742 C 15.019 9.836 6.71 13.283 3.519 15.769 L 4.198 16.635 C 7.138 14.344 14.923 11.087 23.455 16.661 L 24.059 15.742 Z M 3.536 3.116 C 12.591 9.663 20.927 5.839 24.124 3.09 L 23.404 2.258 C 20.465 4.792 12.706 8.38 4.188 2.23 L 3.535 3.116 Z" fill="rgb(0, 0, 0)"></path><path d="M 14.525 17.892 L 13.425 17.892 L 13.425 0.992 L 14.525 0.992 Z" fill="rgb(0, 0, 0)"></path><path d="M 9.041 17.344 C 4.657 17.344 1.106 13.809 1.106 9.445 C 1.106 5.079 4.657 1.545 9.042 1.545 L 18.959 1.545 C 23.343 1.545 26.893 5.08 26.893 9.445 C 26.893 13.81 23.343 17.344 18.959 17.344 Z M 0 9.438 C 0 14.411 4.046 18.439 9.041 18.439 L 18.959 18.439 C 23.948 18.439 28 14.411 28 9.438 C 28 4.465 23.955 0.438 18.959 0.438 L 9.041 0.438 C 4.045 0.445 0 4.471 0 9.438 Z" fill="rgb(0, 0, 0)"></path><path d="M 27.274 9.992 L 0.68 9.992 L 0.68 8.897 L 27.275 8.897 L 27.275 9.992 Z" fill="rgb(0, 0, 0)"></path></svg>