<svg width="672" height="128" viewBox="0 0 672 128" fill="none" xmlns="http://www.w3.org/2000/svg">
<rect x="0.5" y="0.5" width="671" height="127" rx="15.5" fill="url(#paint0_linear_3485_20493)"/>
<rect x="0.5" y="0.5" width="671" height="127" rx="15.5" stroke="#FAF0FF"/>
<path d="M332.3 70.8297C332.438 71.0223 332.62 71.1792 332.83 71.2874C333.041 71.3957 333.275 71.4522 333.511 71.4522C333.748 71.4522 333.982 71.3957 334.193 71.2874C334.403 71.1792 334.585 71.0223 334.723 70.8297L344.595 57.1422C344.773 56.8938 344.595 56.5469 344.29 56.5469H342.092C341.614 56.5469 341.159 56.7766 340.878 57.1703L333.514 67.3891L330.176 62.7578C329.895 62.3687 329.445 62.1344 328.962 62.1344H326.764C326.459 62.1344 326.281 62.4812 326.459 62.7297L332.3 70.8297Z" fill="#7E22CE"/>
<path d="M353.25 45.25H318.75C317.92 45.25 317.25 45.9203 317.25 46.75V81.25C317.25 82.0797 317.92 82.75 318.75 82.75H353.25C354.08 82.75 354.75 82.0797 354.75 81.25V46.75C354.75 45.9203 354.08 45.25 353.25 45.25ZM351.375 79.375H320.625V48.625H351.375V79.375Z" fill="#7E22CE"/>
<defs>
<linearGradient id="paint0_linear_3485_20493" x1="336" y1="0" x2="336" y2="128" gradientUnits="userSpaceOnUse">
<stop stop-color="white"/>
<stop offset="1" stop-color="#FAF0FF"/>
</linearGradient>
</defs>
</svg>
