<svg width="20" height="20" viewBox="0 0 20 20" fill="none" xmlns="http://www.w3.org/2000/svg">
<path d="M13.7812 18.75H6.21875C4.1625 18.75 2.5 17.0875 2.5 15.0312V7.51875C2.5 5.4375 4.1875 3.75 6.26875 3.75H13.7375C15.8125 3.75 17.5 5.4375 17.5 7.51875V15.0375C17.5 17.0875 15.8375 18.75 13.7812 18.75Z" fill="url(#paint0_radial_3485_20514)"/>
<path d="M2.5 7.5C2.5 6.50544 2.89509 5.55161 3.59835 4.84835C4.30161 4.14509 5.25544 3.75 6.25 3.75H7.5V18.75H6.25C5.25544 18.75 4.30161 18.3549 3.59835 17.6517C2.89509 16.9484 2.5 15.9946 2.5 15V7.5Z" fill="url(#paint1_linear_3485_20514)"/>
<path d="M2.5 15H17.5C17.5 15.9946 17.1049 16.9484 16.4017 17.6517C15.6984 18.3549 14.7446 18.75 13.75 18.75H6.25C5.25544 18.75 4.30161 18.3549 3.59835 17.6517C2.89509 16.9484 2.5 15.9946 2.5 15Z" fill="url(#paint2_linear_3485_20514)"/>
<path d="M12.5 3.75H13.75C14.7446 3.75 15.6984 4.14509 16.4017 4.84835C17.1049 5.55161 17.5 6.50544 17.5 7.5V15C17.5 15.9946 17.1049 16.9484 16.4017 17.6517C15.6984 18.3549 14.7446 18.75 13.75 18.75H12.5V3.75Z" fill="url(#paint3_radial_3485_20514)"/>
<path d="M2.1875 4.73438V8.16604" stroke="url(#paint4_linear_3485_20514)" stroke-width="0.625" stroke-miterlimit="10"/>
<path d="M2.5 7.5V14.375C1.8125 14.375 1.25 13.8125 1.25 13.1263V8.74875C1.25 8.0625 1.8125 7.5 2.5 7.5Z" fill="url(#paint5_linear_3485_20514)"/>
<g filter="url(#filter0_ii_3485_20514)">
<path d="M4.02892 8.02792C4.43943 7.64783 5.10398 7.54883 5.42466 7.54883H7.46997C8.57546 7.54883 9.51867 8.08491 9.43946 9.25849C9.311 10.8764 8.16398 12.1369 6.4775 12.1369C4.80986 12.1369 3.95986 10.8522 3.71935 10.0389C3.47884 9.22613 3.51603 8.50315 4.02892 8.02792Z" fill="url(#paint6_radial_3485_20514)"/>
<path d="M4.02892 8.02792C4.43943 7.64783 5.10398 7.54883 5.42466 7.54883H7.46997C8.57546 7.54883 9.51867 8.08491 9.43946 9.25849C9.311 10.8764 8.16398 12.1369 6.4775 12.1369C4.80986 12.1369 3.95986 10.8522 3.71935 10.0389C3.47884 9.22613 3.51603 8.50315 4.02892 8.02792Z" fill="url(#paint7_radial_3485_20514)"/>
<path d="M4.02892 8.02792C4.43943 7.64783 5.10398 7.54883 5.42466 7.54883H7.46997C8.57546 7.54883 9.51867 8.08491 9.43946 9.25849C9.311 10.8764 8.16398 12.1369 6.4775 12.1369C4.80986 12.1369 3.95986 10.8522 3.71935 10.0389C3.47884 9.22613 3.51603 8.50315 4.02892 8.02792Z" fill="url(#paint8_radial_3485_20514)"/>
</g>
<g filter="url(#filter1_ii_3485_20514)">
<path d="M15.9709 8.02792C15.5603 7.64783 14.8953 7.54883 14.5746 7.54883H12.5298C11.4238 7.54883 10.4811 8.08491 10.5603 9.25849C10.6883 10.8764 11.8353 12.1369 13.5218 12.1369C15.1894 12.1369 16.0394 10.8522 16.2799 10.0389C16.5205 9.22613 16.4838 8.50315 15.9709 8.02792Z" fill="url(#paint9_radial_3485_20514)"/>
<path d="M15.9709 8.02792C15.5603 7.64783 14.8953 7.54883 14.5746 7.54883H12.5298C11.4238 7.54883 10.4811 8.08491 10.5603 9.25849C10.6883 10.8764 11.8353 12.1369 13.5218 12.1369C15.1894 12.1369 16.0394 10.8522 16.2799 10.0389C16.5205 9.22613 16.4838 8.50315 15.9709 8.02792Z" fill="url(#paint10_radial_3485_20514)"/>
<path d="M15.9709 8.02792C15.5603 7.64783 14.8953 7.54883 14.5746 7.54883H12.5298C11.4238 7.54883 10.4811 8.08491 10.5603 9.25849C10.6883 10.8764 11.8353 12.1369 13.5218 12.1369C15.1894 12.1369 16.0394 10.8522 16.2799 10.0389C16.5205 9.22613 16.4838 8.50315 15.9709 8.02792Z" fill="url(#paint11_radial_3485_20514)"/>
</g>
<g filter="url(#filter2_i_3485_20514)">
<path fill-rule="evenodd" clip-rule="evenodd" d="M9.82102 9.28739C9.72298 11.055 8.49627 12.5 6.47801 12.5C4.58772 12.5 3.63823 11.0405 3.37261 10.1432C3.11809 9.28352 3.11664 8.3804 3.78312 7.76318C4.04537 7.52026 4.37377 7.37923 4.66306 7.2981C4.91105 7.22749 5.16734 7.1903 5.42517 7.1875H7.47048C8.07417 7.1875 8.71698 7.33239 9.1642 7.67722C9.27142 7.75964 9.36608 7.85188 9.44818 7.95395C9.51483 8.02205 9.63025 8.12685 9.76065 8.12685H10.2339C10.3832 8.12685 10.5131 7.9892 10.572 7.9269L10.5715 7.92932C10.6488 7.83691 10.7367 7.75288 10.8352 7.67722C11.2824 7.33287 11.9257 7.1875 12.5294 7.1875H14.5743C14.7655 7.1875 15.0451 7.21648 15.3364 7.2981C15.6256 7.37923 15.9545 7.52026 16.2163 7.76318C16.8828 8.3804 16.8813 9.28352 16.6268 10.1427C16.3612 11.0405 15.4117 12.5 13.5214 12.5C11.5027 12.5 10.2769 11.055 10.1784 9.28739V9.28352C10.1732 9.21136 10.1713 9.13901 10.1726 9.06668C10.1696 9.02383 10.1505 8.98372 10.1191 8.95435C10.0878 8.92498 10.0465 8.90852 10.0036 8.90827C9.95691 8.90827 9.91214 8.92677 9.8791 8.95973C9.84605 8.99268 9.82743 9.03739 9.8273 9.08406V9.08889C9.82762 9.15264 9.82553 9.21752 9.82102 9.28352V9.28739ZM9.43948 9.25889C9.51917 8.08531 8.57596 7.54972 7.47 7.54972H5.42517C5.10448 7.54972 4.43994 7.64872 4.02943 8.02881C3.51605 8.50452 3.47886 9.22653 3.71985 10.0398C3.96085 10.8531 4.81037 12.1378 6.47752 12.1378C8.16448 12.1378 9.3115 10.8773 9.43997 9.25937M10.5604 9.25937C10.4812 8.0858 11.4244 7.5502 12.5299 7.5502H14.5747C14.8954 7.5502 15.56 7.6492 15.9705 8.02929C16.4839 8.505 16.521 9.22702 16.2801 10.0403C16.0391 10.8536 15.1895 12.1383 13.5224 12.1383C11.8354 12.1383 10.6884 10.8778 10.5604 9.25986" fill="url(#paint12_linear_3485_20514)"/>
<path fill-rule="evenodd" clip-rule="evenodd" d="M9.82102 9.28739C9.72298 11.055 8.49627 12.5 6.47801 12.5C4.58772 12.5 3.63823 11.0405 3.37261 10.1432C3.11809 9.28352 3.11664 8.3804 3.78312 7.76318C4.04537 7.52026 4.37377 7.37923 4.66306 7.2981C4.91105 7.22749 5.16734 7.1903 5.42517 7.1875H7.47048C8.07417 7.1875 8.71698 7.33239 9.1642 7.67722C9.27142 7.75964 9.36608 7.85188 9.44818 7.95395C9.51483 8.02205 9.63025 8.12685 9.76065 8.12685H10.2339C10.3832 8.12685 10.5131 7.9892 10.572 7.9269L10.5715 7.92932C10.6488 7.83691 10.7367 7.75288 10.8352 7.67722C11.2824 7.33287 11.9257 7.1875 12.5294 7.1875H14.5743C14.7655 7.1875 15.0451 7.21648 15.3364 7.2981C15.6256 7.37923 15.9545 7.52026 16.2163 7.76318C16.8828 8.3804 16.8813 9.28352 16.6268 10.1427C16.3612 11.0405 15.4117 12.5 13.5214 12.5C11.5027 12.5 10.2769 11.055 10.1784 9.28739V9.28352C10.1732 9.21136 10.1713 9.13901 10.1726 9.06668C10.1696 9.02383 10.1505 8.98372 10.1191 8.95435C10.0878 8.92498 10.0465 8.90852 10.0036 8.90827C9.95691 8.90827 9.91214 8.92677 9.8791 8.95973C9.84605 8.99268 9.82743 9.03739 9.8273 9.08406V9.08889C9.82762 9.15264 9.82553 9.21752 9.82102 9.28352V9.28739ZM9.43948 9.25889C9.51917 8.08531 8.57596 7.54972 7.47 7.54972H5.42517C5.10448 7.54972 4.43994 7.64872 4.02943 8.02881C3.51605 8.50452 3.47886 9.22653 3.71985 10.0398C3.96085 10.8531 4.81037 12.1378 6.47752 12.1378C8.16448 12.1378 9.3115 10.8773 9.43997 9.25937M10.5604 9.25937C10.4812 8.0858 11.4244 7.5502 12.5299 7.5502H14.5747C14.8954 7.5502 15.56 7.6492 15.9705 8.02929C16.4839 8.505 16.521 9.22702 16.2801 10.0403C16.0391 10.8536 15.1895 12.1383 13.5224 12.1383C11.8354 12.1383 10.6884 10.8778 10.5604 9.25986" fill="url(#paint13_radial_3485_20514)"/>
</g>
<path d="M15.6548 8.43207C15.8861 8.81553 15.8238 9.27724 15.5152 9.46317C15.2071 9.64911 14.7695 9.48877 14.5382 9.10482C14.3068 8.72087 14.3691 8.25965 14.6777 8.07323C14.9863 7.88778 15.4234 8.04812 15.6548 8.43207Z" fill="url(#paint14_radial_3485_20514)"/>
<path d="M8.65183 8.43207C8.88316 8.81553 8.82086 9.27724 8.51225 9.46317C8.20413 9.64911 7.76657 9.48877 7.53524 9.10482C7.3039 8.72087 7.3662 8.25965 7.67481 8.07323C7.98342 7.88778 8.42049 8.04812 8.65183 8.43207Z" fill="url(#paint15_radial_3485_20514)"/>
<g filter="url(#filter3_f_3485_20514)">
<path d="M16.0775 7.95632C15.6467 7.55402 14.9488 7.44922 14.6122 7.44922H12.4665C11.3064 7.44922 10.3163 8.01669 10.3994 9.25837C10.5346 10.9709 11.7377 12.3048 13.5077 12.3048C15.2579 12.3048 16.1495 10.9453 16.4021 10.0847C16.6546 9.22456 16.616 8.45908 16.0775 7.95632Z" stroke="url(#paint16_radial_3485_20514)" stroke-width="0.231818"/>
</g>
<g filter="url(#filter4_f_3485_20514)">
<path d="M9.11461 7.95632C8.68382 7.55402 7.98643 7.44922 7.64981 7.44922H5.50356C4.34351 7.44922 3.35345 8.01669 3.43652 9.25837C3.57174 10.9709 4.77527 12.3048 6.54481 12.3048C8.29504 12.3048 9.18657 10.9453 9.43916 10.0847C9.69174 9.22456 9.65311 8.45908 9.11461 7.95632Z" stroke="url(#paint17_radial_3485_20514)" stroke-width="0.231818"/>
</g>
<path d="M11.58 16.25H8.42C7.9125 16.25 7.5 15.8288 7.5 15.3125C7.5 14.7963 7.9125 14.375 8.42 14.375H11.58C12.0869 14.375 12.5 14.7963 12.5 15.3125C12.5 15.8288 12.0875 16.25 11.58 16.25Z" fill="url(#paint18_linear_3485_20514)"/>
<path d="M2.1875 5.06836C2.31061 5.06836 2.43252 5.04411 2.54627 4.997C2.66001 4.94988 2.76336 4.88083 2.85041 4.79377C2.93747 4.70672 3.00652 4.60337 3.05364 4.48963C3.10075 4.37588 3.125 4.25397 3.125 4.13086C3.125 4.00775 3.10075 3.88584 3.05364 3.77209C3.00652 3.65835 2.93747 3.555 2.85041 3.46795C2.76336 3.38089 2.66001 3.31184 2.54627 3.26472C2.43252 3.21761 2.31061 3.19336 2.1875 3.19336C1.93886 3.19336 1.7004 3.29213 1.52459 3.46795C1.34877 3.64376 1.25 3.88222 1.25 4.13086C1.25 4.3795 1.34877 4.61796 1.52459 4.79377C1.7004 4.96959 1.93886 5.06836 2.1875 5.06836Z" fill="url(#paint19_radial_3485_20514)"/>
<path d="M17.8125 4.75391V8.1818" stroke="url(#paint20_linear_3485_20514)" stroke-width="0.625" stroke-miterlimit="10"/>
<path d="M17.8125 5.13086C18.0694 5.13086 18.3158 5.0288 18.4975 4.84712C18.6792 4.66544 18.7812 4.41904 18.7812 4.16211C18.7812 3.90518 18.6792 3.65878 18.4975 3.4771C18.3158 3.29542 18.0694 3.19336 17.8125 3.19336C17.5556 3.19336 17.3092 3.29542 17.1275 3.4771C16.9458 3.65878 16.8438 3.90518 16.8438 4.16211C16.8438 4.41904 16.9458 4.66544 17.1275 4.84712C17.3092 5.0288 17.5556 5.13086 17.8125 5.13086Z" fill="url(#paint21_radial_3485_20514)"/>
<path d="M12.1875 1.875H7.8125C7.29473 1.875 6.875 2.29473 6.875 2.8125C6.875 3.33027 7.29473 3.75 7.8125 3.75H12.1875C12.7053 3.75 13.125 3.33027 13.125 2.8125C13.125 2.29473 12.7053 1.875 12.1875 1.875Z" fill="url(#paint22_linear_3485_20514)"/>
<path d="M12.1875 1.875H7.8125C7.29473 1.875 6.875 2.29473 6.875 2.8125C6.875 3.33027 7.29473 3.75 7.8125 3.75H12.1875C12.7053 3.75 13.125 3.33027 13.125 2.8125C13.125 2.29473 12.7053 1.875 12.1875 1.875Z" fill="url(#paint23_radial_3485_20514)"/>
<path d="M17.5 14.3383V7.45703C18.1875 7.45703 18.75 8.01953 18.75 8.70703V13.0883C18.75 13.7758 18.1875 14.3383 17.5 14.3383Z" fill="url(#paint24_linear_3485_20514)"/>
<g filter="url(#filter5_f_3485_20514)">
<path d="M2.26562 5.13086V7.3935" stroke="url(#paint25_linear_3485_20514)" stroke-width="0.15625"/>
</g>
<g filter="url(#filter6_f_3485_20514)">
<path d="M17.8906 5.13086V7.3935" stroke="url(#paint26_linear_3485_20514)" stroke-width="0.15625"/>
</g>
<path d="M18.125 9.375C18.4702 9.375 18.75 8.95527 18.75 8.4375C18.75 7.91973 18.4702 7.5 18.125 7.5C17.7798 7.5 17.5 7.91973 17.5 8.4375C17.5 8.95527 17.7798 9.375 18.125 9.375Z" fill="url(#paint27_radial_3485_20514)"/>
<path d="M18.125 13.125C18.4702 13.125 18.75 11.8658 18.75 10.3125C18.75 8.7592 18.4702 7.5 18.125 7.5C17.7798 7.5 17.5 8.7592 17.5 10.3125C17.5 11.8658 17.7798 13.125 18.125 13.125Z" fill="url(#paint28_radial_3485_20514)"/>
<path fill-rule="evenodd" clip-rule="evenodd" d="M12.3605 1.89062C12.5465 1.9254 12.7176 2.01566 12.8513 2.14952C12.9851 2.28338 13.0752 2.45459 13.1098 2.64062C13.0846 2.74926 13.0309 2.84917 12.954 2.93001C12.8772 3.01084 12.7802 3.06966 12.673 3.10035C12.5658 3.13103 12.4523 3.13248 12.3444 3.10454C12.2364 3.07659 12.1379 3.02027 12.059 2.94142C11.9802 2.86257 11.9239 2.76406 11.8959 2.6561C11.868 2.54815 11.8694 2.43468 11.9001 2.32748C11.9308 2.22027 11.9896 2.12323 12.0704 2.04641C12.1513 1.9696 12.2518 1.91581 12.3605 1.89062Z" fill="url(#paint29_radial_3485_20514)"/>
<defs>
<filter id="filter0_ii_3485_20514" x="3.4989" y="7.47156" width="6.13862" height="4.85835" filterUnits="userSpaceOnUse" color-interpolation-filters="sRGB">
<feFlood flood-opacity="0" result="BackgroundImageFix"/>
<feBlend mode="normal" in="SourceGraphic" in2="BackgroundImageFix" result="shape"/>
<feColorMatrix in="SourceAlpha" type="matrix" values="0 0 0 0 0 0 0 0 0 0 0 0 0 0 0 0 0 0 127 0" result="hardAlpha"/>
<feOffset dx="0.193182" dy="0.193182"/>
<feGaussianBlur stdDeviation="0.386364"/>
<feComposite in2="hardAlpha" operator="arithmetic" k2="-1" k3="1"/>
<feColorMatrix type="matrix" values="0 0 0 0 0.121569 0 0 0 0 0.0666667 0 0 0 0 0.278431 0 0 0 1 0"/>
<feBlend mode="normal" in2="shape" result="effect1_innerShadow_3485_20514"/>
<feColorMatrix in="SourceAlpha" type="matrix" values="0 0 0 0 0 0 0 0 0 0 0 0 0 0 0 0 0 0 127 0" result="hardAlpha"/>
<feOffset dx="-0.0772727" dy="-0.0772727"/>
<feGaussianBlur stdDeviation="0.0579545"/>
<feComposite in2="hardAlpha" operator="arithmetic" k2="-1" k3="1"/>
<feColorMatrix type="matrix" values="0 0 0 0 0.219608 0 0 0 0 0.121569 0 0 0 0 0.384314 0 0 0 1 0"/>
<feBlend mode="normal" in2="effect1_innerShadow_3485_20514" result="effect2_innerShadow_3485_20514"/>
</filter>
<filter id="filter1_ii_3485_20514" x="10.4784" y="7.47156" width="6.13764" height="4.85835" filterUnits="userSpaceOnUse" color-interpolation-filters="sRGB">
<feFlood flood-opacity="0" result="BackgroundImageFix"/>
<feBlend mode="normal" in="SourceGraphic" in2="BackgroundImageFix" result="shape"/>
<feColorMatrix in="SourceAlpha" type="matrix" values="0 0 0 0 0 0 0 0 0 0 0 0 0 0 0 0 0 0 127 0" result="hardAlpha"/>
<feOffset dx="0.193182" dy="0.193182"/>
<feGaussianBlur stdDeviation="0.386364"/>
<feComposite in2="hardAlpha" operator="arithmetic" k2="-1" k3="1"/>
<feColorMatrix type="matrix" values="0 0 0 0 0.121569 0 0 0 0 0.0666667 0 0 0 0 0.278431 0 0 0 1 0"/>
<feBlend mode="normal" in2="shape" result="effect1_innerShadow_3485_20514"/>
<feColorMatrix in="SourceAlpha" type="matrix" values="0 0 0 0 0 0 0 0 0 0 0 0 0 0 0 0 0 0 127 0" result="hardAlpha"/>
<feOffset dx="-0.0772727" dy="-0.0772727"/>
<feGaussianBlur stdDeviation="0.0579545"/>
<feComposite in2="hardAlpha" operator="arithmetic" k2="-1" k3="1"/>
<feColorMatrix type="matrix" values="0 0 0 0 0.219608 0 0 0 0 0.121569 0 0 0 0 0.384314 0 0 0 1 0"/>
<feBlend mode="normal" in2="effect1_innerShadow_3485_20514" result="effect2_innerShadow_3485_20514"/>
</filter>
<filter id="filter2_i_3485_20514" x="3.21484" y="7.1875" width="13.5693" height="5.46705" filterUnits="userSpaceOnUse" color-interpolation-filters="sRGB">
<feFlood flood-opacity="0" result="BackgroundImageFix"/>
<feBlend mode="normal" in="SourceGraphic" in2="BackgroundImageFix" result="shape"/>
<feColorMatrix in="SourceAlpha" type="matrix" values="0 0 0 0 0 0 0 0 0 0 0 0 0 0 0 0 0 0 127 0" result="hardAlpha"/>
<feOffset dy="0.154545"/>
<feGaussianBlur stdDeviation="0.0772727"/>
<feComposite in2="hardAlpha" operator="arithmetic" k2="-1" k3="1"/>
<feColorMatrix type="matrix" values="0 0 0 0 0.329412 0 0 0 0 0.282353 0 0 0 0 0.568627 0 0 0 1 0"/>
<feBlend mode="normal" in2="shape" result="effect1_innerShadow_3485_20514"/>
</filter>
<filter id="filter3_f_3485_20514" x="10.1238" y="7.17944" width="6.69874" height="5.39503" filterUnits="userSpaceOnUse" color-interpolation-filters="sRGB">
<feFlood flood-opacity="0" result="BackgroundImageFix"/>
<feBlend mode="normal" in="SourceGraphic" in2="BackgroundImageFix" result="shape"/>
<feGaussianBlur stdDeviation="0.0772727" result="effect1_foregroundBlur_3485_20514"/>
</filter>
<filter id="filter4_f_3485_20514" x="3.16088" y="7.17944" width="6.69874" height="5.39503" filterUnits="userSpaceOnUse" color-interpolation-filters="sRGB">
<feFlood flood-opacity="0" result="BackgroundImageFix"/>
<feBlend mode="normal" in="SourceGraphic" in2="BackgroundImageFix" result="shape"/>
<feGaussianBlur stdDeviation="0.0772727" result="effect1_foregroundBlur_3485_20514"/>
</filter>
<filter id="filter5_f_3485_20514" x="1.875" y="4.81836" width="0.78125" height="2.88672" filterUnits="userSpaceOnUse" color-interpolation-filters="sRGB">
<feFlood flood-opacity="0" result="BackgroundImageFix"/>
<feBlend mode="normal" in="SourceGraphic" in2="BackgroundImageFix" result="shape"/>
<feGaussianBlur stdDeviation="0.15625" result="effect1_foregroundBlur_3485_20514"/>
</filter>
<filter id="filter6_f_3485_20514" x="17.5" y="4.81836" width="0.78125" height="2.88672" filterUnits="userSpaceOnUse" color-interpolation-filters="sRGB">
<feFlood flood-opacity="0" result="BackgroundImageFix"/>
<feBlend mode="normal" in="SourceGraphic" in2="BackgroundImageFix" result="shape"/>
<feGaussianBlur stdDeviation="0.15625" result="effect1_foregroundBlur_3485_20514"/>
</filter>
<radialGradient id="paint0_radial_3485_20514" cx="0" cy="0" r="1" gradientUnits="userSpaceOnUse" gradientTransform="translate(15.6249 7.18759) rotate(141.911) scale(14.6908)">
<stop stop-color="#EEEBF0"/>
<stop offset="0.493" stop-color="#D1BEE3"/>
<stop offset="1" stop-color="#D0BCE2"/>
</radialGradient>
<linearGradient id="paint1_linear_3485_20514" x1="7.5" y1="11.25" x2="2.5" y2="11.25" gradientUnits="userSpaceOnUse">
<stop stop-color="#D5B2C0" stop-opacity="0"/>
<stop offset="1" stop-color="#B4878D"/>
</linearGradient>
<linearGradient id="paint2_linear_3485_20514" x1="10" y1="16.875" x2="10" y2="19.375" gradientUnits="userSpaceOnUse">
<stop stop-color="#B17EDB" stop-opacity="0"/>
<stop offset="1" stop-color="#A56BD6"/>
</linearGradient>
<radialGradient id="paint3_radial_3485_20514" cx="0" cy="0" r="1" gradientUnits="userSpaceOnUse" gradientTransform="translate(15.625 8.4375) rotate(-5.71059) scale(3.14059 12.004)">
<stop stop-color="#F0EAF6"/>
<stop offset="1" stop-color="#E7E0EF" stop-opacity="0"/>
</radialGradient>
<linearGradient id="paint4_linear_3485_20514" x1="-nan" y1="-nan" x2="-nan" y2="-nan" gradientUnits="userSpaceOnUse">
<stop stop-color="#EA248A"/>
<stop offset="1" stop-color="#DF2232"/>
</linearGradient>
<linearGradient id="paint5_linear_3485_20514" x1="1.875" y1="7.5" x2="1.875" y2="14.375" gradientUnits="userSpaceOnUse">
<stop stop-color="#E93273"/>
<stop offset="1" stop-color="#D21844"/>
</linearGradient>
<radialGradient id="paint6_radial_3485_20514" cx="0" cy="0" r="1" gradientUnits="userSpaceOnUse" gradientTransform="translate(5.60191 8.03178) rotate(67.5862) scale(4.19569 4.64369)">
<stop offset="0.365" stop-color="#311F5E"/>
<stop offset="0.954" stop-color="#4F1373"/>
</radialGradient>
<radialGradient id="paint7_radial_3485_20514" cx="0" cy="0" r="1" gradientUnits="userSpaceOnUse" gradientTransform="translate(4.98324 10.3562) rotate(-18.3151) scale(4.56262 5.6299)">
<stop offset="0.893" stop-color="#4D4176" stop-opacity="0"/>
<stop offset="0.976" stop-color="#4D4176"/>
</radialGradient>
<radialGradient id="paint8_radial_3485_20514" cx="0" cy="0" r="1" gradientUnits="userSpaceOnUse" gradientTransform="translate(9.09794 8.65045) rotate(162.06) scale(3.87074 2.04236)">
<stop offset="0.145" stop-color="#51477A"/>
<stop offset="1" stop-color="#51477A" stop-opacity="0"/>
</radialGradient>
<radialGradient id="paint9_radial_3485_20514" cx="0" cy="0" r="1" gradientUnits="userSpaceOnUse" gradientTransform="translate(12.5815 8.03178) rotate(67.5862) scale(4.19569 4.64369)">
<stop offset="0.365" stop-color="#311F5E"/>
<stop offset="0.954" stop-color="#4F1373"/>
</radialGradient>
<radialGradient id="paint10_radial_3485_20514" cx="0" cy="0" r="1" gradientUnits="userSpaceOnUse" gradientTransform="translate(11.9628 10.3562) rotate(-18.3151) scale(4.56262 5.6299)">
<stop offset="0.893" stop-color="#4D4176" stop-opacity="0"/>
<stop offset="0.976" stop-color="#4D4176"/>
</radialGradient>
<radialGradient id="paint11_radial_3485_20514" cx="0" cy="0" r="1" gradientUnits="userSpaceOnUse" gradientTransform="translate(16.0767 8.65112) rotate(162.06) scale(3.87074 2.04236)">
<stop offset="0.145" stop-color="#51477A"/>
<stop offset="1" stop-color="#51477A" stop-opacity="0"/>
</radialGradient>
<linearGradient id="paint12_linear_3485_20514" x1="9.99971" y1="7.1875" x2="9.99971" y2="12.0021" gradientUnits="userSpaceOnUse">
<stop offset="0.29" stop-color="#5C4EA3"/>
<stop offset="1" stop-color="#5C278D"/>
</linearGradient>
<radialGradient id="paint13_radial_3485_20514" cx="0" cy="0" r="1" gradientUnits="userSpaceOnUse" gradientTransform="translate(10.7039 8.59869) rotate(-169.739) scale(0.889582 0.51908)">
<stop offset="0.325" stop-color="#6A57A0"/>
<stop offset="1" stop-color="#6A57A0" stop-opacity="0"/>
</radialGradient>
<radialGradient id="paint14_radial_3485_20514" cx="0" cy="0" r="1" gradientUnits="userSpaceOnUse" gradientTransform="translate(15.3674 9.63143) rotate(-113.728) scale(1.50023 4.69856)">
<stop offset="0.259" stop-color="#E5DBF4" stop-opacity="0"/>
<stop offset="1" stop-color="#E5DBF4"/>
</radialGradient>
<radialGradient id="paint15_radial_3485_20514" cx="0" cy="0" r="1" gradientUnits="userSpaceOnUse" gradientTransform="translate(8.45447 9.32959) rotate(-122.939) scale(1.2768 3.9988)">
<stop offset="0.259" stop-color="#E5DBF4" stop-opacity="0"/>
<stop offset="1" stop-color="#E5DBF4"/>
</radialGradient>
<radialGradient id="paint16_radial_3485_20514" cx="0" cy="0" r="1" gradientUnits="userSpaceOnUse" gradientTransform="translate(10.6662 10.6143) rotate(-34.638) scale(1.89855 2.42441)">
<stop stop-color="#624A93"/>
<stop offset="1" stop-color="#624A93" stop-opacity="0"/>
</radialGradient>
<radialGradient id="paint17_radial_3485_20514" cx="0" cy="0" r="1" gradientUnits="userSpaceOnUse" gradientTransform="translate(3.70355 10.6144) rotate(-34.638) scale(1.89855 2.42441)">
<stop stop-color="#55377A"/>
<stop offset="1" stop-color="#55377A" stop-opacity="0"/>
</radialGradient>
<linearGradient id="paint18_linear_3485_20514" x1="9.99875" y1="16.0538" x2="9.99875" y2="14.3056" gradientUnits="userSpaceOnUse">
<stop offset="0.006" stop-color="#39325E"/>
<stop offset="1" stop-color="#2B1831"/>
</linearGradient>
<radialGradient id="paint19_radial_3485_20514" cx="0" cy="0" r="1" gradientUnits="userSpaceOnUse" gradientTransform="translate(2.5 3.81836) rotate(104.036) scale(1.28847)">
<stop stop-color="#FF6C82"/>
<stop offset="0.441" stop-color="#FF2455"/>
<stop offset="1" stop-color="#D9206C"/>
</radialGradient>
<linearGradient id="paint20_linear_3485_20514" x1="-nan" y1="-nan" x2="-nan" y2="-nan" gradientUnits="userSpaceOnUse">
<stop stop-color="#EA248A"/>
<stop offset="1" stop-color="#DF2232"/>
</linearGradient>
<radialGradient id="paint21_radial_3485_20514" cx="0" cy="0" r="1" gradientUnits="userSpaceOnUse" gradientTransform="translate(18.135 3.83891) rotate(104.036) scale(1.33142)">
<stop stop-color="#FF6C82"/>
<stop offset="0.441" stop-color="#FF2455"/>
<stop offset="1" stop-color="#D9206C"/>
</radialGradient>
<linearGradient id="paint22_linear_3485_20514" x1="10" y1="1.875" x2="9.0625" y2="4.0625" gradientUnits="userSpaceOnUse">
<stop stop-color="#FFCE2B"/>
<stop offset="1" stop-color="#D9862D"/>
</linearGradient>
<radialGradient id="paint23_radial_3485_20514" cx="0" cy="0" r="1" gradientUnits="userSpaceOnUse" gradientTransform="translate(10 2.5) rotate(90) scale(1.875 6.25)">
<stop offset="0.431" stop-color="#CA7E29" stop-opacity="0"/>
<stop offset="1" stop-color="#673F13"/>
</radialGradient>
<linearGradient id="paint24_linear_3485_20514" x1="18.125" y1="7.45703" x2="18.125" y2="14.3383" gradientUnits="userSpaceOnUse">
<stop stop-color="#FF30AA"/>
<stop offset="1" stop-color="#FF2353"/>
</linearGradient>
<linearGradient id="paint25_linear_3485_20514" x1="-nan" y1="-nan" x2="-nan" y2="-nan" gradientUnits="userSpaceOnUse">
<stop stop-color="#FF96CB"/>
<stop offset="1" stop-color="#FF6DB7" stop-opacity="0"/>
</linearGradient>
<linearGradient id="paint26_linear_3485_20514" x1="-nan" y1="-nan" x2="-nan" y2="-nan" gradientUnits="userSpaceOnUse">
<stop stop-color="#FF96CB"/>
<stop offset="1" stop-color="#FF6DB7" stop-opacity="0"/>
</linearGradient>
<radialGradient id="paint27_radial_3485_20514" cx="0" cy="0" r="1" gradientUnits="userSpaceOnUse" gradientTransform="translate(18.125 8.4375) rotate(90) scale(0.9375 0.625)">
<stop stop-color="#FF72C1"/>
<stop offset="1" stop-color="#FF6EBF" stop-opacity="0"/>
</radialGradient>
<radialGradient id="paint28_radial_3485_20514" cx="0" cy="0" r="1" gradientUnits="userSpaceOnUse" gradientTransform="translate(18.125 10.3125) rotate(90) scale(2.8125 0.34965)">
<stop stop-color="#FF4B9C"/>
<stop offset="1" stop-color="#FF73C1" stop-opacity="0"/>
</radialGradient>
<radialGradient id="paint29_radial_3485_20514" cx="0" cy="0" r="1" gradientUnits="userSpaceOnUse" gradientTransform="translate(12.5005 2.5) rotate(90) scale(0.625)">
<stop stop-color="#FFEA60"/>
<stop offset="1" stop-color="#FFEF66" stop-opacity="0"/>
</radialGradient>
</defs>
</svg>
