<svg width="24" height="24" viewBox="0 0 24 24" fill="none" xmlns="http://www.w3.org/2000/svg">
<path d="M2.17212 7.29509V16.7055C2.17212 17.3044 2.49132 17.8587 3.01135 18.1586L11.1607 22.8616C11.6807 23.1615 12.3192 23.1615 12.8392 22.8616L20.9885 18.1586C21.5086 17.8587 21.8278 17.3044 21.8278 16.7055V7.29509C21.8278 6.69614 21.5086 6.14192 20.9885 5.84201L12.8392 1.139C12.3192 0.839084 11.6807 0.839084 11.1607 1.139L3.01135 5.84201C2.49571 6.14192 2.17212 6.69614 2.17212 7.29509Z" fill="#05163D"/>
<path d="M13.7819 13.8243L12.6182 17.0102C12.584 17.0979 12.584 17.197 12.6182 17.2847L14.6158 22.7681L16.9283 21.4326L14.1546 13.8243C14.0906 13.6471 13.845 13.6471 13.7819 13.8243Z" fill="#12AAFF"/>
<path d="M16.1084 8.46391C16.0444 8.28677 15.7989 8.28677 15.7357 8.46391L14.572 11.6498C14.5378 11.7375 14.5378 11.8366 14.572 11.9243L17.8456 20.9033L20.1581 19.5677L16.1084 8.46391Z" fill="#12AAFF"/>
<path d="M11.9999 1.48729C12.0587 1.48729 12.1131 1.50219 12.1666 1.53201L20.9833 6.62263C21.0859 6.68138 21.1499 6.78924 21.1499 6.90763V17.0889C21.1499 17.2064 21.0859 17.3142 20.9833 17.3739L12.1666 22.4697C12.1175 22.4996 12.0587 22.5145 11.9999 22.5145C11.9412 22.5145 11.8868 22.4996 11.8333 22.4697L3.02099 17.3791C2.91839 17.3204 2.85437 17.2125 2.85437 17.0941V6.90763C2.85437 6.79012 2.91839 6.68226 3.02099 6.62263L11.8377 1.53201C11.8868 1.50219 11.9456 1.48729 11.9999 1.48729ZM11.9999 0C11.686 0 11.3712 0.0833092 11.0914 0.245543L2.27472 5.33616C1.71523 5.65975 1.36621 6.25957 1.36621 6.90675V17.088C1.36621 17.736 1.71523 18.3394 2.27472 18.6638L11.0914 23.7545C11.3712 23.9167 11.6851 24 11.9999 24C12.3148 24 12.6287 23.9167 12.9084 23.7545L21.7252 18.6638C22.2899 18.3394 22.6337 17.7413 22.6337 17.088V6.90675C22.6337 6.2587 22.2847 5.65536 21.7252 5.3309L12.9128 0.245543C12.6278 0.0833092 12.3139 0 11.9991 0H11.9999Z" fill="#9DCCED"/>
<path d="M6.17358 20.9129L6.98387 18.6934L8.6141 20.0482L7.09261 21.4426L6.17446 20.9129H6.17358Z" fill="#213147"/>
<path d="M11.2589 6.17969H9.02536C8.85875 6.17969 8.70616 6.28229 8.65267 6.43926L3.86108 19.5758L6.17357 20.9113L11.451 6.44452C11.4957 6.31737 11.4019 6.17969 11.2589 6.17969Z" fill="white"/>
<path d="M15.1709 6.17969H12.9373C12.7707 6.17969 12.6181 6.28229 12.5646 6.43926L7.09167 21.441L9.40416 22.7766L15.3577 6.44978C15.4068 6.31737 15.3086 6.17969 15.1709 6.17969Z" fill="white"/>
</svg>
