<svg width="16" height="16" viewBox="0 0 16 16" fill="none" xmlns="http://www.w3.org/2000/svg">
<g clip-path="url(#clip0_2238_1016)">
<path d="M4.7838 9.09117C5.25905 9.09117 5.69776 8.93325 6.0512 8.65991L3.15078 5.76855C2.87657 6.1148 2.71814 6.55214 2.71814 7.03202C2.71205 8.16788 3.63824 9.09117 4.7838 9.09117Z" fill="#04795B"/>
<path d="M13.4118 7.02612C13.4118 6.55236 13.2534 6.11502 12.9792 5.7627L10.0788 8.65402C10.4261 8.92736 10.8648 9.08528 11.3462 9.08528C12.4856 9.09136 13.4118 8.1681 13.4118 7.02612Z" fill="#04795B"/>
<path d="M14.8743 3.88574L13.5886 5.16742C14.0151 5.67763 14.2711 6.3215 14.2711 7.03829C14.2711 8.64792 12.961 9.95389 11.3463 9.95389C10.6334 9.95389 9.98138 9.69878 9.46956 9.27359L8.06199 10.6767L6.65442 9.27359C6.14259 9.69878 5.4967 9.95389 4.77768 9.95389C3.16293 9.95389 1.85287 8.64792 1.85287 7.03829C1.85287 6.32758 2.1088 5.67763 2.53534 5.16742L1.87726 4.5114L1.24964 3.88574C0.518443 5.08844 0.0979919 6.49161 0.0979919 7.99801C0.0979919 12.3835 3.66258 15.931 8.0559 15.931C12.4492 15.931 16.0138 12.3775 16.0138 7.99801C16.026 6.48554 15.6055 5.08237 14.8743 3.88574Z" fill="#04795B"/>
<path d="M13.8202 2.51864C12.376 1.00617 10.3287 0.0585938 8.06197 0.0585938C5.79523 0.0585938 3.75397 1.00617 2.30375 2.51864C2.10877 2.72519 1.91989 2.94387 1.74316 3.1686L8.05587 9.46148L14.3686 3.16252C14.2101 2.94384 14.0213 2.71911 13.8202 2.51864ZM8.06197 1.09121C9.92651 1.09121 11.6571 1.80797 12.9548 3.11394L8.06197 7.99154L3.169 3.11394C4.47298 1.80797 6.19741 1.09121 8.06197 1.09121Z" fill="#04795B"/>
</g>
<defs>
<clipPath id="clip0_2238_1016">
<rect width="16" height="16" fill="white"/>
</clipPath>
</defs>
</svg>
