<svg width="32" height="32" viewBox="0 0 32 32" fill="none" xmlns="http://www.w3.org/2000/svg">
<path d="M29.2566 23.6533C29.1808 23.7847 29.0628 23.9134 28.8179 24.089C28.561 24.2731 28.2124 24.4754 27.6916 24.7761L17.7551 30.5141C17.2344 30.8147 16.8846 31.015 16.5967 31.1454C16.3225 31.2696 16.1524 31.3064 16.0007 31.3065C15.849 31.3065 15.6781 31.2699 15.4036 31.1456C15.1157 31.0151 14.7661 30.8136 14.2454 30.513L4.3089 24.7761C3.78816 24.4755 3.43886 24.2735 3.18196 24.0894C2.93715 23.9139 2.82069 23.7846 2.74481 23.6532C2.66891 23.5218 2.61509 23.356 2.58552 23.0561C2.55453 22.7416 2.55396 22.3387 2.55396 21.7377L2.55405 10.2629C2.55405 9.66162 2.55496 9.25844 2.58597 8.94391C2.61554 8.64407 2.66888 8.47805 2.74477 8.34661C2.82068 8.21526 2.93789 8.08586 3.18266 7.91043C3.43948 7.72642 3.78814 7.52457 4.30845 7.22416L14.2459 1.48669C14.7663 1.18619 15.1156 0.985231 15.4034 0.85483C15.6779 0.730461 15.8489 0.693359 16.0007 0.693359C16.1523 0.693441 16.3224 0.730534 16.5965 0.854691C16.8844 0.985112 17.2345 1.1858 17.7552 1.48645L27.6917 7.22326C28.2124 7.52391 28.5612 7.72672 28.8181 7.91084C29.0631 8.08641 29.1807 8.21522 29.2566 8.34668C29.3325 8.47811 29.385 8.64436 29.4146 8.94418C29.4456 9.25871 29.447 9.66184 29.447 10.2631L29.446 21.7374C29.446 22.3382 29.4455 22.7411 29.4146 23.0555C29.3851 23.3552 29.3324 23.5219 29.2566 23.6533Z" stroke="black" stroke-width="1.33333"/>
<path d="M10.2576 24.7212L10.728 23.6863C11.1984 23.8117 11.6218 23.8901 11.9982 23.8901C12.892 23.8901 13.5506 23.451 14.0524 22.1181C14.3504 21.3184 14.6013 20.2678 14.8208 19.0917C13.582 18.7467 12.5313 17.8058 12.5313 16.2691C12.5313 14.3246 14.2249 13.3367 15.8558 13.2739C16.1067 12.0665 16.3732 10.9375 16.7182 10.0436C17.4082 8.2246 18.6 7.40918 19.9642 7.40918C20.5444 7.40918 21.156 7.56599 21.7676 7.83257L21.2971 8.86753C20.8267 8.74208 20.4033 8.66368 20.027 8.66368C19.1331 8.66368 18.4745 9.10275 17.9727 10.4513C17.6591 11.2511 17.4082 12.286 17.1887 13.4308C18.4275 13.7914 19.4781 14.7323 19.4781 16.2691C19.4781 18.2292 17.8002 19.2171 16.138 19.2642C15.9028 20.4716 15.6362 21.6007 15.3069 22.4945C14.6169 24.3135 13.4252 25.1446 12.0609 25.1446C11.4807 25.1446 10.8691 24.9878 10.2576 24.7212ZM13.6447 16.2691C13.6447 17.2099 14.2406 17.8058 15.009 18.0724C15.1187 17.4922 15.2128 16.8806 15.3226 16.2691C15.4324 15.6104 15.5421 14.9518 15.6676 14.3089C14.6013 14.4344 13.6447 15.0773 13.6447 16.2691ZM16.6398 16.4572C16.5457 17.0531 16.436 17.649 16.3419 18.2292C17.3925 18.1194 18.3647 17.4608 18.3647 16.2691C18.3647 15.3282 17.7689 14.7166 16.9848 14.45C16.875 15.1086 16.7496 15.7829 16.6398 16.4572Z" fill="black"/>
</svg>
