<svg width="16" height="16" viewBox="0 0 16 16" fill="none" xmlns="http://www.w3.org/2000/svg">
<g clip-path="url(#clip0_2127_4617)">
<path d="M7.99976 0.333984C12.2338 0.333984 15.6666 3.76597 15.6667 8C15.6667 12.2342 12.2339 15.667 7.99976 15.667C3.76572 15.6668 0.33374 12.2341 0.33374 8C0.333916 3.76607 3.76583 0.33416 7.99976 0.333984Z" fill="#DFFE00" stroke="#C2CBD7" stroke-width="0.666667"/>
<path d="M12.1219 11.6605H10.5113V8.00522L11.1562 5.92064L10.6993 5.75804L8.60919 11.6605H7.3843L5.29416 5.75804L4.83725 5.92064L5.48211 8.00522V11.6605H3.87158V4.32715H6.26955L7.75695 8.52551V9.75805H8.24301V8.52551L9.73043 4.32715H12.1284V11.6605H12.1219Z" fill="black"/>
</g>
<defs>
<clipPath id="clip0_2127_4617">
<rect width="16" height="16" fill="white"/>
</clipPath>
</defs>
</svg>
