<svg width="16" height="16" viewBox="0 0 16 16" fill="none" xmlns="http://www.w3.org/2000/svg">
<g clip-path="url(#clip0_2238_104)">
<path d="M8 16C12.4183 16 16 12.4183 16 8C16 3.58172 12.4183 0 8 0C3.58172 0 0 3.58172 0 8C0 12.4183 3.58172 16 8 16Z" fill="#FF0420"/>
<path d="M5.6672 10.125C5.1904 10.125 4.8 10.013 4.496 9.78896C4.1952 9.56176 4.0448 9.23536 4.0448 8.81616C4.0448 8.72656 4.0544 8.62096 4.0736 8.49296C4.1248 8.20496 4.1984 7.85936 4.2944 7.45296C4.5664 6.35216 5.2704 5.80176 6.4032 5.80176C6.7104 5.80176 6.9888 5.85296 7.232 5.95856C7.4752 6.05776 7.6672 6.21136 7.808 6.41616C7.9488 6.61776 8.0192 6.85776 8.0192 7.13616C8.0192 7.21936 8.0096 7.32496 7.9904 7.45296C7.9296 7.80816 7.8592 8.15696 7.7728 8.49296C7.632 9.04016 7.392 9.45296 7.0464 9.72496C6.704 9.99376 6.2432 10.125 5.6672 10.125ZM5.7536 9.26096C5.9776 9.26096 6.1664 9.19376 6.3232 9.06256C6.4832 8.93136 6.5984 8.72976 6.6656 8.45456C6.7584 8.07696 6.8288 7.75056 6.8768 7.46896C6.8928 7.38576 6.9024 7.29936 6.9024 7.20976C6.9024 6.84496 6.7136 6.66256 6.3328 6.66256C6.1088 6.66256 5.9168 6.72976 5.7568 6.86096C5.6 6.99216 5.488 7.19376 5.4208 7.46896C5.3472 7.73776 5.2768 8.06416 5.2032 8.45456C5.1872 8.53456 5.1776 8.61776 5.1776 8.70736C5.1744 9.07856 5.3696 9.26096 5.7536 9.26096Z" fill="white"/>
<path d="M8.29758 10.0671C8.25278 10.0671 8.22078 10.0543 8.19518 10.0255C8.17598 9.9935 8.16958 9.9583 8.17598 9.9167L9.00478 6.0127C9.01118 5.9679 9.03358 5.9327 9.07198 5.9039C9.10718 5.8751 9.14558 5.8623 9.18718 5.8623H10.784C11.2288 5.8623 11.584 5.9551 11.8528 6.1375C12.1248 6.3231 12.2624 6.5887 12.2624 6.9375C12.2624 7.0367 12.2496 7.1423 12.2272 7.2511C12.128 7.7119 11.9264 8.0511 11.6192 8.2719C11.3184 8.4927 10.9056 8.6015 10.3808 8.6015H9.57118L9.29598 9.9167C9.28638 9.9615 9.26718 9.9967 9.22878 10.0255C9.19358 10.0543 9.15518 10.0671 9.11358 10.0671H8.29758ZM10.4224 7.7727C10.592 7.7727 10.736 7.7279 10.8608 7.6351C10.9888 7.5423 11.072 7.4111 11.1136 7.2383C11.1264 7.1711 11.1328 7.1103 11.1328 7.0591C11.1328 6.9439 11.0976 6.8543 11.0304 6.7935C10.9632 6.7295 10.8448 6.6975 10.6816 6.6975H9.96158L9.73438 7.7727H10.4224Z" fill="white"/>
</g>
<defs>
<clipPath id="clip0_2238_104">
<rect width="16" height="16" fill="white"/>
</clipPath>
</defs>
</svg>
