<svg width="159" height="89" viewBox="0 0 159 89" fill="none" xmlns="http://www.w3.org/2000/svg">
<g clip-path="url(#clip0_2102_19)">
<rect width="159" height="89" fill="white"/>
<path d="M115.545 88C138.852 88 157.746 69.1057 157.746 45.7985C157.746 22.4912 138.852 3.59698 115.545 3.59698C92.2376 3.59698 73.3434 22.4912 73.3434 45.7985C73.3434 69.1057 92.2376 88 115.545 88Z" fill="white" stroke="#7200D5" stroke-width="0.815645" stroke-miterlimit="10"/>
<path d="M115.545 84.403C138.852 84.403 157.746 65.5087 157.746 42.2015C157.746 18.8942 138.852 0 115.545 0C92.2376 0 73.3434 18.8942 73.3434 42.2015C73.3434 65.5087 92.2376 84.403 115.545 84.403Z" fill="#7200D5"/>
<g clip-path="url(#clip1_2102_19)">
<mask id="mask0_2102_19" style="mask-type:luminance" maskUnits="userSpaceOnUse" x="102" y="32" width="26" height="20">
<path d="M127.176 32.6862H102.707V51.929H127.176V32.6862Z" fill="white"/>
</mask>
<g mask="url(#mask0_2102_19)">
<path d="M103.712 37.0428V33.6923H126.169V37.0428H103.712ZM103.712 43.9248V40.5743H126.169V43.9248H103.712ZM103.712 50.8067V47.4563H112.647V50.8067H103.712ZM117.235 50.8067V47.4563H126.169V50.8067H117.235Z" fill="white"/>
<path fill-rule="evenodd" clip-rule="evenodd" d="M102.707 38.0489V32.6862H127.176V38.0489H102.707ZM102.707 44.9309V39.5682H127.176V44.9309H102.707ZM102.707 51.8128V46.4501H113.653V51.8128H102.707ZM116.229 51.8128V46.4501H127.176V51.8128H116.229ZM103.713 37.0428H126.17V33.6923H103.713V37.0428ZM103.713 43.9247H126.17V40.5743H103.713V43.9247ZM103.713 50.8068H112.647V47.4564H103.713V50.8068ZM117.235 50.8068H126.17V47.4564H117.235V50.8068Z" fill="white"/>
</g>
</g>
<path d="M115.594 71.5321C131.793 71.5321 144.924 58.4004 144.924 42.2015C144.924 26.0027 131.793 12.8709 115.594 12.8709C99.3949 12.8709 86.2632 26.0027 86.2632 42.2015C86.2632 58.4004 99.3949 71.5321 115.594 71.5321Z" stroke="white" stroke-width="2.44694" stroke-miterlimit="10"/>
<path d="M43.3238 88C66.631 88 85.5253 69.1058 85.5253 45.7985C85.5253 22.4913 66.631 3.59705 43.3238 3.59705C20.0166 3.59705 1.12231 22.4913 1.12231 45.7985C1.12231 69.1058 20.0166 88 43.3238 88Z" fill="white" stroke="#7DD3FC" stroke-width="0.815645" stroke-miterlimit="10"/>
<path d="M43.2015 84.403C66.5087 84.403 85.403 65.5087 85.403 42.2015C85.403 18.8943 66.5087 0 43.2015 0C19.8942 0 1 18.8943 1 42.2015C1 65.5087 19.8942 84.403 43.2015 84.403Z" fill="#7DD3FC"/>
<path d="M43.3727 71.5321C59.5716 71.5321 72.7034 58.4004 72.7034 42.2015C72.7034 26.0027 59.5716 12.8709 43.3727 12.8709C27.1739 12.8709 14.0421 26.0027 14.0421 42.2015C14.0421 58.4004 27.1739 71.5321 43.3727 71.5321Z" stroke="white" stroke-width="2.44694" stroke-miterlimit="10"/>
<g clip-path="url(#clip2_2102_19)">
<path d="M42.9736 57C51.2728 57 58 50.2848 58 42C58 33.7152 51.2728 27 42.9736 27C35.1004 27 28.642 33.0456 28 40.7388H47.8612V43.2612H28C28.642 50.9544 35.1004 57 42.9736 57Z" fill="black" fill-opacity="0.3"/>
</g>
</g>
<defs>
<clipPath id="clip0_2102_19">
<rect width="159" height="89" fill="white"/>
</clipPath>
<clipPath id="clip1_2102_19">
<rect width="24.4694" height="19.2429" fill="white" transform="translate(102.707 32.6862)"/>
</clipPath>
<clipPath id="clip2_2102_19">
<rect width="30" height="30" fill="white" transform="translate(28 27)"/>
</clipPath>
</defs>
</svg>
