<svg width="159" height="89" viewBox="0 0 159 89" fill="none" xmlns="http://www.w3.org/2000/svg">
<path d="M115.545 88C138.852 88 157.746 69.1057 157.746 45.7985C157.746 22.4913 138.852 3.59702 115.545 3.59702C92.2376 3.59702 73.3434 22.4913 73.3434 45.7985C73.3434 69.1057 92.2376 88 115.545 88Z" fill="white" stroke="#7200D5" stroke-width="0.815645" stroke-miterlimit="10"/>
<path d="M115.545 84.403C138.852 84.403 157.746 65.5087 157.746 42.2015C157.746 18.8942 138.852 0 115.545 0C92.2376 0 73.3434 18.8942 73.3434 42.2015C73.3434 65.5087 92.2376 84.403 115.545 84.403Z" fill="#7200D5"/>
<g clip-path="url(#clip0_2026_115)">
<mask id="mask0_2026_115" style="mask-type:luminance" maskUnits="userSpaceOnUse" x="102" y="32" width="26" height="20">
<path d="M127.176 32.6861H102.707V51.929H127.176V32.6861Z" fill="white"/>
</mask>
<g mask="url(#mask0_2026_115)">
<path d="M103.712 37.0428V33.6923H126.169V37.0428H103.712ZM103.712 43.9248V40.5743H126.169V43.9248H103.712ZM103.712 50.8067V47.4563H112.647V50.8067H103.712ZM117.235 50.8067V47.4563H126.169V50.8067H117.235Z" fill="white"/>
<path fill-rule="evenodd" clip-rule="evenodd" d="M102.707 38.0489V32.6861H127.176V38.0489H102.707ZM102.707 44.9309V39.5681H127.176V44.9309H102.707ZM102.707 51.8128V46.4501H113.653V51.8128H102.707ZM116.229 51.8128V46.4501H127.176V51.8128H116.229ZM103.713 37.0427H126.17V33.6923H103.713V37.0427ZM103.713 43.9247H126.17V40.5743H103.713V43.9247ZM103.713 50.8067H112.647V47.4563H103.713V50.8067ZM117.235 50.8067H126.17V47.4563H117.235V50.8067Z" fill="white"/>
</g>
</g>
<path d="M115.594 71.5321C131.793 71.5321 144.924 58.4003 144.924 42.2015C144.924 26.0027 131.793 12.8709 115.594 12.8709C99.3949 12.8709 86.2632 26.0027 86.2632 42.2015C86.2632 58.4003 99.3949 71.5321 115.594 71.5321Z" stroke="white" stroke-width="2.44694" stroke-miterlimit="10"/>
<path d="M43.3238 88C66.631 88 85.5253 69.1058 85.5253 45.7985C85.5253 22.4913 66.631 3.59703 43.3238 3.59703C20.0166 3.59703 1.12231 22.4913 1.12231 45.7985C1.12231 69.1058 20.0166 88 43.3238 88Z" fill="white" stroke="#7DD3FC" stroke-width="0.815645" stroke-miterlimit="10"/>
<path d="M43.2015 84.403C66.5087 84.403 85.403 65.5087 85.403 42.2015C85.403 18.8943 66.5087 0 43.2015 0C19.8942 0 1 18.8943 1 42.2015C1 65.5087 19.8942 84.403 43.2015 84.403Z" fill="#7DD3FC"/>
<g style="mix-blend-mode:plus-darker">
<path d="M29.4485 34.9862V48.0405C29.4485 48.8797 29.888 49.6389 30.6207 50.0652L41.9299 56.5923C42.6492 57.0053 43.5417 57.0053 44.261 56.5923L55.5703 50.0652C56.2896 49.6523 56.7425 48.8797 56.7425 48.0405V34.9862C56.7425 34.147 56.3029 33.3877 55.5703 32.9615L44.261 26.4344C43.5417 26.0214 42.6492 26.0214 41.9299 26.4344L30.6207 32.9615C29.9014 33.3744 29.4618 34.147 29.4618 34.9862H29.4485Z" fill="#343434"/>
<path d="M45.5531 44.0443L43.9413 48.4667C43.9014 48.5866 43.9014 48.7198 43.9413 48.853L46.712 56.4591L49.9223 54.6075L46.0726 44.0443C45.9794 43.8045 45.6464 43.8045 45.5531 44.0443Z" fill="#898989"/>
<path d="M48.7901 36.6113C48.6968 36.3716 48.3638 36.3716 48.2706 36.6113L46.6588 41.0338C46.6188 41.1537 46.6188 41.2869 46.6588 41.4201L51.2011 53.8749L54.4114 52.0233L48.7901 36.6246V36.6113Z" fill="#898989"/>
<path d="M43.0888 26.9272C43.1687 26.9272 43.2487 26.9539 43.3153 26.9938L55.5436 34.0538C55.6902 34.1337 55.7701 34.2935 55.7701 34.4534V48.5733C55.7701 48.7331 55.6768 48.893 55.5436 48.9729L43.3153 56.0329C43.2487 56.0728 43.1687 56.0995 43.0888 56.0995C43.0089 56.0995 42.929 56.0728 42.8624 56.0329L30.634 48.9729C30.4875 48.893 30.4076 48.7331 30.4076 48.5733V34.4401C30.4076 34.2802 30.5008 34.1204 30.634 34.0405L42.8624 26.9805C42.929 26.9405 43.0089 26.9139 43.0888 26.9139V26.9272ZM43.0888 24.8625C42.6492 24.8625 42.223 24.9691 41.8234 25.1955L29.595 32.2555C28.8091 32.7084 28.3295 33.5343 28.3295 34.4401V48.56C28.3295 49.4658 28.8091 50.2917 29.595 50.7446L41.8234 57.8045C42.2097 58.031 42.6492 58.1375 43.0888 58.1375C43.5284 58.1375 43.9547 58.031 44.3543 57.8045L56.5826 50.7446C57.3686 50.2917 57.8481 49.4658 57.8481 48.56V34.4401C57.8481 33.5343 57.3686 32.7084 56.5826 32.2555L44.341 25.1955C43.9547 24.9691 43.5151 24.8625 43.0755 24.8625H43.0888Z" fill="#C5C5C5"/>
<path d="M34.9899 53.8882L36.1221 50.7978L38.3866 52.676L36.2687 54.6209L34.9899 53.8882Z" fill="#343434"/>
<path d="M42.0498 33.441H38.9461C38.7196 33.441 38.5065 33.5875 38.4266 33.8007L31.7796 52.0233L34.9898 53.8749L42.3162 33.8007C42.3828 33.6142 42.2496 33.4277 42.0631 33.4277L42.0498 33.441Z" fill="white"/>
<path d="M47.4846 33.441H44.3809C44.1545 33.441 43.9413 33.5875 43.8614 33.8007L36.2686 54.6075L39.4789 56.4591L47.7377 33.8007C47.8043 33.6142 47.6711 33.4277 47.4846 33.4277V33.441Z" fill="white"/>
</g>
<path d="M43.3727 71.5321C59.5716 71.5321 72.7034 58.4004 72.7034 42.2015C72.7034 26.0027 59.5716 12.8709 43.3727 12.8709C27.1739 12.8709 14.0421 26.0027 14.0421 42.2015C14.0421 58.4004 27.1739 71.5321 43.3727 71.5321Z" stroke="white" stroke-width="2.44694" stroke-miterlimit="10"/>
<defs>
<clipPath id="clip0_2026_115">
<rect width="24.4694" height="19.2429" fill="white" transform="translate(102.707 32.6861)"/>
</clipPath>
</defs>
</svg>
