<svg width="159" height="89" viewBox="0 0 159 89" fill="none" xmlns="http://www.w3.org/2000/svg">
<path d="M115.545 88C138.852 88 157.746 69.1057 157.746 45.7985C157.746 22.4913 138.852 3.59702 115.545 3.59702C92.2376 3.59702 73.3434 22.4913 73.3434 45.7985C73.3434 69.1057 92.2376 88 115.545 88Z" fill="white" stroke="#7200D5" stroke-width="0.815645" stroke-miterlimit="10"/>
<path d="M115.545 84.403C138.852 84.403 157.746 65.5087 157.746 42.2015C157.746 18.8942 138.852 0 115.545 0C92.2376 0 73.3434 18.8942 73.3434 42.2015C73.3434 65.5087 92.2376 84.403 115.545 84.403Z" fill="#7200D5"/>
<g clip-path="url(#clip0_2026_85)">
<mask id="mask0_2026_85" style="mask-type:luminance" maskUnits="userSpaceOnUse" x="102" y="32" width="26" height="20">
<path d="M127.176 32.6861H102.707V51.929H127.176V32.6861Z" fill="white"/>
</mask>
<g mask="url(#mask0_2026_85)">
<path d="M103.712 37.0428V33.6923H126.169V37.0428H103.712ZM103.712 43.9248V40.5743H126.169V43.9248H103.712ZM103.712 50.8067V47.4563H112.647V50.8067H103.712ZM117.235 50.8067V47.4563H126.169V50.8067H117.235Z" fill="white"/>
<path fill-rule="evenodd" clip-rule="evenodd" d="M102.707 38.0489V32.6861H127.176V38.0489H102.707ZM102.707 44.9309V39.5681H127.176V44.9309H102.707ZM102.707 51.8128V46.4501H113.653V51.8128H102.707ZM116.229 51.8128V46.4501H127.176V51.8128H116.229ZM103.713 37.0427H126.17V33.6923H103.713V37.0427ZM103.713 43.9247H126.17V40.5743H103.713V43.9247ZM103.713 50.8067H112.647V47.4563H103.713V50.8067ZM117.235 50.8067H126.17V47.4563H117.235V50.8067Z" fill="white"/>
</g>
</g>
<path d="M115.594 71.5321C131.793 71.5321 144.924 58.4003 144.924 42.2015C144.924 26.0027 131.793 12.8709 115.594 12.8709C99.395 12.8709 86.2632 26.0027 86.2632 42.2015C86.2632 58.4003 99.395 71.5321 115.594 71.5321Z" stroke="white" stroke-width="2.44694" stroke-miterlimit="10"/>
<path d="M43.3238 88C66.631 88 85.5253 69.1058 85.5253 45.7985C85.5253 22.4913 66.631 3.59703 43.3238 3.59703C20.0166 3.59703 1.12232 22.4913 1.12232 45.7985C1.12232 69.1058 20.0166 88 43.3238 88Z" fill="white" stroke="#7DD3FC" stroke-width="0.815645" stroke-miterlimit="10"/>
<path d="M43.2015 84.403C66.5087 84.403 85.403 65.5087 85.403 42.2015C85.403 18.8943 66.5087 0 43.2015 0C19.8942 0 1 18.8943 1 42.2015C1 65.5087 19.8942 84.403 43.2015 84.403Z" fill="#7DD3FC"/>
<g style="mix-blend-mode:plus-darker" opacity="0.6">
<path d="M51.1383 36.7994C50.5954 36.4892 49.8975 36.4892 49.2772 36.7994L44.9346 39.3584L41.9879 40.9868L37.7228 43.5458C37.18 43.856 36.4821 43.856 35.8617 43.5458L32.5273 41.5297C31.9845 41.2195 31.5967 40.5991 31.5967 39.9012V36.0239C31.5967 35.4035 31.9069 34.7832 32.5273 34.3954L35.8617 32.4568C36.4046 32.1466 37.1025 32.1466 37.7228 32.4568L41.0573 34.473C41.6001 34.7832 41.9879 35.4035 41.9879 36.1015V38.6605L44.9346 36.9545V34.3179C44.9346 33.6975 44.6244 33.0772 44.004 32.6894L37.8004 29.0448C37.2576 28.7346 36.5597 28.7346 35.9393 29.0448L29.5805 32.767C28.9602 33.0772 28.65 33.6975 28.65 34.3179V41.6072C28.65 42.2276 28.9602 42.8479 29.5805 43.2357L35.8617 46.8803C36.4046 47.1905 37.1025 47.1905 37.7228 46.8803L41.9879 44.3988L44.9346 42.6928L49.1996 40.2114C49.7424 39.9012 50.4403 39.9012 51.0607 40.2114L54.3952 42.15C54.938 42.4602 55.3257 43.0806 55.3257 43.7785V47.6558C55.3257 48.2761 55.0155 48.8965 54.3952 49.2842L51.1383 51.2229C50.5954 51.533 49.8975 51.533 49.2772 51.2229L45.9427 49.2842C45.3999 48.974 45.0121 48.3537 45.0121 47.6558V45.1743L42.0654 46.8803V49.4393C42.0654 50.0597 42.3756 50.68 42.996 51.0678L49.2772 54.7124C49.82 55.0226 50.5179 55.0226 51.1383 54.7124L57.4195 51.0678C57.9623 50.7576 58.35 50.1372 58.35 49.4393V42.0725C58.35 41.4521 58.0398 40.8317 57.4195 40.444L51.1383 36.7994Z" fill="#595959"/>
</g>
<path d="M43.3727 71.5321C59.5716 71.5321 72.7033 58.4004 72.7033 42.2015C72.7033 26.0027 59.5716 12.8709 43.3727 12.8709C27.1739 12.8709 14.0421 26.0027 14.0421 42.2015C14.0421 58.4004 27.1739 71.5321 43.3727 71.5321Z" stroke="white" stroke-width="2.44694" stroke-miterlimit="10"/>
<defs>
<clipPath id="clip0_2026_85">
<rect width="24.4694" height="19.2429" fill="white" transform="translate(102.707 32.6861)"/>
</clipPath>
</defs>
</svg>
