<svg width="159" height="89" viewBox="0 0 159 89" fill="none" xmlns="http://www.w3.org/2000/svg">
<g clip-path="url(#clip0_2098_55)">
<rect width="159" height="89" fill="white"/>
<path d="M115.545 88C138.852 88 157.746 69.1057 157.746 45.7985C157.746 22.4912 138.852 3.59698 115.545 3.59698C92.2376 3.59698 73.3434 22.4912 73.3434 45.7985C73.3434 69.1057 92.2376 88 115.545 88Z" fill="white" stroke="#7200D5" stroke-width="0.815645" stroke-miterlimit="10"/>
<path d="M115.545 84.403C138.852 84.403 157.746 65.5087 157.746 42.2015C157.746 18.8942 138.852 0 115.545 0C92.2376 0 73.3434 18.8942 73.3434 42.2015C73.3434 65.5087 92.2376 84.403 115.545 84.403Z" fill="#7200D5"/>
<g clip-path="url(#clip1_2098_55)">
<mask id="mask0_2098_55" style="mask-type:luminance" maskUnits="userSpaceOnUse" x="102" y="32" width="26" height="20">
<path d="M127.176 32.6862H102.707V51.929H127.176V32.6862Z" fill="white"/>
</mask>
<g mask="url(#mask0_2098_55)">
<path d="M103.712 37.0428V33.6923H126.169V37.0428H103.712ZM103.712 43.9248V40.5743H126.169V43.9248H103.712ZM103.712 50.8067V47.4563H112.647V50.8067H103.712ZM117.235 50.8067V47.4563H126.169V50.8067H117.235Z" fill="white"/>
<path fill-rule="evenodd" clip-rule="evenodd" d="M102.707 38.0489V32.6862H127.176V38.0489H102.707ZM102.707 44.9309V39.5682H127.176V44.9309H102.707ZM102.707 51.8128V46.4501H113.653V51.8128H102.707ZM116.229 51.8128V46.4501H127.176V51.8128H116.229ZM103.713 37.0428H126.17V33.6923H103.713V37.0428ZM103.713 43.9247H126.17V40.5743H103.713V43.9247ZM103.713 50.8068H112.647V47.4564H103.713V50.8068ZM117.235 50.8068H126.17V47.4564H117.235V50.8068Z" fill="white"/>
</g>
</g>
<path d="M115.594 71.5321C131.793 71.5321 144.924 58.4004 144.924 42.2015C144.924 26.0027 131.793 12.8709 115.594 12.8709C99.3949 12.8709 86.2632 26.0027 86.2632 42.2015C86.2632 58.4004 99.3949 71.5321 115.594 71.5321Z" stroke="white" stroke-width="2.44694" stroke-miterlimit="10"/>
<path d="M43.3238 88C66.631 88 85.5253 69.1058 85.5253 45.7985C85.5253 22.4913 66.631 3.59705 43.3238 3.59705C20.0166 3.59705 1.12231 22.4913 1.12231 45.7985C1.12231 69.1058 20.0166 88 43.3238 88Z" fill="white" stroke="#7DD3FC" stroke-width="0.815645" stroke-miterlimit="10"/>
<path d="M43.2015 84.403C66.5087 84.403 85.403 65.5087 85.403 42.2015C85.403 18.8943 66.5087 0 43.2015 0C19.8942 0 1 18.8943 1 42.2015C1 65.5087 19.8942 84.403 43.2015 84.403Z" fill="#7DD3FC"/>
<path d="M43.3727 71.5321C59.5716 71.5321 72.7033 58.4004 72.7033 42.2015C72.7033 26.0027 59.5716 12.8709 43.3727 12.8709C27.1739 12.8709 14.0421 26.0027 14.0421 42.2015C14.0421 58.4004 27.1739 71.5321 43.3727 71.5321Z" stroke="white" stroke-width="2.44694" stroke-miterlimit="10"/>
<g clip-path="url(#clip2_2098_55)">
<path d="M43 57C51.2843 57 58 50.2843 58 42C58 33.7157 51.2843 27 43 27C34.7157 27 28 33.7157 28 42C28 50.2843 34.7157 57 43 57Z" fill="#828282" fill-opacity="0.6"/>
<path d="M38.628 45.9867C37.7348 45.9867 37.0031 45.7766 36.4326 45.3563C35.8697 44.9285 35.5883 44.3205 35.5883 43.5324C35.5883 43.3673 35.607 43.1646 35.6445 42.9245C35.7422 42.3841 35.881 41.7348 36.0611 40.9768C36.5715 38.9128 37.8887 37.8808 40.0128 37.8808C40.5907 37.8808 41.1086 37.9784 41.5664 38.1735C42.0243 38.3611 42.3845 38.6463 42.6472 39.0291C42.9099 39.4044 43.0413 39.8547 43.0413 40.3801C43.0413 40.5377 43.0225 40.7366 42.9849 40.9768C42.8724 41.6448 42.7373 42.294 42.5796 42.9245C42.317 43.9527 41.8629 44.7221 41.2174 45.2324C40.5719 45.7353 39.7088 45.9867 38.628 45.9867ZM38.7856 44.3655C39.206 44.3655 39.5624 44.2417 39.8552 43.994C40.1554 43.7463 40.3693 43.3673 40.4969 42.857C40.6695 42.1514 40.8009 41.5359 40.8909 41.0106C40.9209 40.853 40.9359 40.6916 40.9359 40.5264C40.9359 39.8435 40.5794 39.5019 39.8664 39.5019C39.4461 39.5019 39.0858 39.6258 38.7856 39.8735C38.4929 40.1212 38.2827 40.5002 38.1552 41.0106C38.0201 41.5134 37.8849 42.1289 37.7499 42.857C37.7198 43.007 37.7048 43.1646 37.7048 43.3298C37.7048 44.0203 38.0651 44.3655 38.7856 44.3655Z" fill="white"/>
<path d="M43.5582 45.8742C43.4756 45.8742 43.4118 45.8479 43.3668 45.7954C43.3292 45.7353 43.318 45.6678 43.333 45.5928L44.8866 38.2749C44.9016 38.1923 44.9429 38.1247 45.0105 38.0722C45.078 38.0197 45.1493 37.9934 45.2244 37.9934H48.2191C49.0522 37.9934 49.7202 38.166 50.223 38.5113C50.7334 38.8566 50.9886 39.3556 50.9886 40.0086C50.9886 40.1962 50.9661 40.3914 50.9211 40.594C50.7334 41.4572 50.3544 42.0952 49.784 42.508C49.2211 42.9208 48.448 43.1272 47.4648 43.1272H45.9449L45.427 45.5928C45.412 45.6753 45.3707 45.7428 45.3032 45.7954C45.2356 45.8479 45.1643 45.8742 45.0893 45.8742H43.5582ZM47.5436 41.5735C47.8588 41.5735 48.1327 41.4872 48.3654 41.3146C48.6056 41.142 48.7632 40.8943 48.8383 40.5715C48.8608 40.4439 48.8721 40.3314 48.8721 40.2338C48.8721 40.0161 48.8083 39.851 48.6807 39.7384C48.553 39.6183 48.3354 39.5583 48.0277 39.5583H46.6767L46.2489 41.5735H47.5436Z" fill="white"/>
</g>
</g>
<defs>
<clipPath id="clip0_2098_55">
<rect width="159" height="89" fill="white"/>
</clipPath>
<clipPath id="clip1_2098_55">
<rect width="24.4694" height="19.2429" fill="white" transform="translate(102.707 32.6862)"/>
</clipPath>
<clipPath id="clip2_2098_55">
<rect width="30" height="30" fill="white" transform="translate(28 27)"/>
</clipPath>
</defs>
</svg>
