<svg width="32" height="32" viewBox="0 0 32 32" fill="none" xmlns="http://www.w3.org/2000/svg">
<path d="M15.9924 7.48956C11.1624 7.48761 7.25024 11.3978 7.25024 16.2239C7.25024 20.0403 9.69751 23.2845 13.1057 24.4759C13.5647 24.5911 13.4944 24.265 13.4944 24.0423V22.5286C10.844 22.8392 10.7366 21.0853 10.5588 20.7923C10.1995 20.179 9.34985 20.0228 9.60376 19.7298C10.2073 19.4193 10.8225 19.8079 11.5354 20.8607C12.051 21.6243 13.0569 21.4954 13.5666 21.3685C13.678 20.9095 13.9163 20.4993 14.2444 20.181C11.4983 19.6888 10.3538 18.013 10.3538 16.0208C10.3538 15.054 10.6721 14.1653 11.2971 13.4485C10.8987 12.2669 11.3342 11.2552 11.3928 11.1048C12.5276 11.0032 13.7073 11.9173 13.7991 11.9896C14.4436 11.8157 15.1799 11.7239 16.0041 11.7239C16.8323 11.7239 17.5706 11.8196 18.2209 11.9954C18.4416 11.8275 19.5354 11.0423 20.5901 11.138C20.6467 11.2884 21.0725 12.2767 20.6975 13.4427C21.3303 14.1614 21.6526 15.0579 21.6526 16.0267C21.6526 18.0228 20.5002 19.7005 17.7463 20.1849C17.9822 20.4168 18.1695 20.6935 18.2973 20.9987C18.425 21.3038 18.4907 21.6314 18.4905 21.9622V24.1595C18.5061 24.3353 18.4905 24.5091 18.7834 24.5091C22.2424 23.3431 24.7327 20.0755 24.7327 16.2259C24.7327 11.3978 20.8186 7.48956 15.9924 7.48956Z" fill="#606F85"/>
</svg>
